<mxfile host="app.diagrams.net" modified="2020-08-28T16:25:17.972Z" agent="5.0 (Macintosh; Intel Mac OS X 10_15_6) AppleWebKit/605.1.15 (KHTML, like Gecko) Version/13.1.2 Safari/605.1.15" etag="3kZX2IRrAXfbSSOLWbBP" version="13.6.5" type="github">
  <diagram id="_8f_oS5WrN4E5FLNaVXs" name="Page-1">
    <mxGraphModel dx="1033" dy="614" grid="1" gridSize="10" guides="1" tooltips="1" connect="1" arrows="1" fold="1" page="1" pageScale="1" pageWidth="827" pageHeight="1169" math="0" shadow="0">
      <root>
        <mxCell id="0" />
        <mxCell id="1" parent="0" />
        <mxCell id="Bj3S5kSmnmqyC4hFS-bl-4" style="edgeStyle=orthogonalEdgeStyle;rounded=0;orthogonalLoop=1;jettySize=auto;html=1;exitX=1;exitY=0.5;exitDx=0;exitDy=0;entryX=0;entryY=0.5;entryDx=0;entryDy=0;startArrow=classic;startFill=1;" edge="1" parent="1" source="Bj3S5kSmnmqyC4hFS-bl-1" target="Bj3S5kSmnmqyC4hFS-bl-2">
          <mxGeometry relative="1" as="geometry" />
        </mxCell>
        <mxCell id="Bj3S5kSmnmqyC4hFS-bl-5" value="Data binding" style="edgeLabel;html=1;align=center;verticalAlign=middle;resizable=0;points=[];labelBackgroundColor=none;" vertex="1" connectable="0" parent="Bj3S5kSmnmqyC4hFS-bl-4">
          <mxGeometry x="-0.2" y="-3" relative="1" as="geometry">
            <mxPoint x="12" y="-13" as="offset" />
          </mxGeometry>
        </mxCell>
        <mxCell id="Bj3S5kSmnmqyC4hFS-bl-1" value="&lt;font style=&quot;font-size: 17px&quot;&gt;View&lt;/font&gt;" style="rounded=1;whiteSpace=wrap;html=1;fillColor=#0050ef;strokeColor=#001DBC;fontColor=#ffffff;" vertex="1" parent="1">
          <mxGeometry x="80" y="120" width="120" height="80" as="geometry" />
        </mxCell>
        <mxCell id="Bj3S5kSmnmqyC4hFS-bl-6" style="edgeStyle=orthogonalEdgeStyle;rounded=0;orthogonalLoop=1;jettySize=auto;html=1;exitX=1;exitY=0.25;exitDx=0;exitDy=0;entryX=0;entryY=0.25;entryDx=0;entryDy=0;startArrow=none;startFill=0;" edge="1" parent="1" source="Bj3S5kSmnmqyC4hFS-bl-2" target="Bj3S5kSmnmqyC4hFS-bl-3">
          <mxGeometry relative="1" as="geometry" />
        </mxCell>
        <mxCell id="Bj3S5kSmnmqyC4hFS-bl-2" value="&lt;font style=&quot;font-size: 17px&quot;&gt;ViewModel&lt;/font&gt;" style="rounded=1;whiteSpace=wrap;html=1;fillColor=#1ba1e2;strokeColor=#006EAF;fontColor=#ffffff;" vertex="1" parent="1">
          <mxGeometry x="320" y="120" width="120" height="80" as="geometry" />
        </mxCell>
        <mxCell id="Bj3S5kSmnmqyC4hFS-bl-7" style="edgeStyle=orthogonalEdgeStyle;rounded=0;orthogonalLoop=1;jettySize=auto;html=1;exitX=0;exitY=0.75;exitDx=0;exitDy=0;entryX=1;entryY=0.75;entryDx=0;entryDy=0;startArrow=none;startFill=0;dashed=1;" edge="1" parent="1" source="Bj3S5kSmnmqyC4hFS-bl-3" target="Bj3S5kSmnmqyC4hFS-bl-2">
          <mxGeometry relative="1" as="geometry" />
        </mxCell>
        <mxCell id="Bj3S5kSmnmqyC4hFS-bl-3" value="&lt;font style=&quot;font-size: 17px&quot;&gt;Model&lt;/font&gt;" style="rounded=1;whiteSpace=wrap;html=1;fillColor=#fa6800;strokeColor=#C73500;fontColor=#ffffff;" vertex="1" parent="1">
          <mxGeometry x="560" y="120" width="120" height="80" as="geometry" />
        </mxCell>
      </root>
    </mxGraphModel>
  </diagram>
</mxfile>
